<?xml version="1.0" encoding="UTF-8"?> <svg xmlns="http://www.w3.org/2000/svg" width="100" height="100" viewBox="0 0 100 100" fill="none"> <circle cx="50" cy="50" r="50" fill="#0038D1"></circle> <g clip-path="url(#clip0_815:5)"> <path d="M40.9214 74.9993C39.9229 74.9993 38.9638 74.6059 38.2557 73.9024L18.1051 53.8884C16.6323 52.4262 16.6323 50.0546 18.1051 48.5916C19.5771 47.1286 21.9653 47.1278 23.4373 48.5916L40.7665 65.8023L75.4169 27.2508C76.8033 25.7092 79.1868 25.573 80.741 26.9511C82.2945 28.3292 82.43 30.6967 81.0427 32.2399L43.7339 73.7478C43.0435 74.5162 42.0643 74.968 41.0279 74.9977C40.9924 74.9985 40.9569 74.9993 40.9214 74.9993Z" fill="white"></path> </g> <defs> <clipPath id="clip0_815:5"> <rect width="65" height="49" fill="white" transform="translate(17 26)"></rect> </clipPath> </defs> </svg> 